<svg data-logo="logo" xmlns="http://www.w3.org/2000/svg" viewBox="0 0 192 43">
        <g style="opacity: 1;" id="logogram" transform="translate(0, 1) rotate(0)"><path fill-rule="evenodd" clip-rule="evenodd" d="M20.1509 0.619934C31.1962 0.619934 40.1512 9.57424 40.1512 20.6199C40.1512 31.6656 31.1962 40.6199 20.1509 40.6199C9.10518 40.6199 0.150879 31.6656 0.150879 20.6199C0.150879 9.57424 9.10518 0.619934 20.1509 0.619934ZM19.428 2.11652C17.1463 2.43762 14.9737 4.27101 13.2872 7.33733C12.798 8.22676 12.3566 9.20939 11.972 10.2704C14.2652 9.6941 16.7843 9.35435 19.428 9.3018V2.11652ZM10.2816 10.7507C10.76 9.24951 11.3451 7.86833 12.0204 6.64058C12.8564 5.12052 13.8486 3.80788 14.9665 2.7997C8.88758 4.56516 4.09608 9.35672 2.33058 15.4356C3.33878 14.3177 4.65138 13.3255 6.17148 12.4895C7.39928 11.8142 8.78038 11.229 10.2816 10.7507ZM9.80128 12.441C9.22498 14.7342 8.88528 17.2533 8.83268 19.897H1.64738C1.96848 17.6153 3.80188 15.4427 6.86828 13.7563C7.75768 13.2671 8.74028 12.8257 9.80128 12.441ZM10.2788 19.897C10.3385 17.0119 10.7539 14.3033 11.4411 11.9101C13.8343 11.2229 16.5429 10.8075 19.428 10.7478V13.8707C18.3517 16.6261 16.1565 18.8211 13.401 19.897H10.2788ZM8.83268 21.3428H1.64738C1.96848 23.6245 3.80188 25.797 6.86828 27.4835C7.75768 27.9727 8.74028 28.4141 9.80128 28.7988C9.22498 26.5056 8.88528 23.9865 8.83268 21.3428ZM11.4411 29.3297C10.7539 26.9365 10.3385 24.2279 10.2788 21.3428H13.401C16.1565 22.4187 18.3517 24.6137 19.428 27.3691V30.492C16.5429 30.4323 13.8343 30.0169 11.4411 29.3297ZM10.2816 30.4891C8.78038 30.0108 7.39928 29.4256 6.17148 28.7503C4.65138 27.9143 3.33878 26.9221 2.33058 25.8042C4.09608 31.8831 8.88758 36.6747 14.9665 38.4401C13.8486 37.4319 12.8564 36.1193 12.0204 34.5992C11.3451 33.3715 10.76 31.9903 10.2816 30.4891ZM19.428 39.1233C17.1463 38.8022 14.9737 36.9688 13.2872 33.9025C12.798 33.0131 12.3566 32.0304 11.972 30.9695C14.2652 31.5457 16.7843 31.8855 19.428 31.938V39.1233ZM25.3352 38.4401C26.4531 37.4319 27.4452 36.1193 28.2812 34.5992C28.9562 33.3715 29.5422 31.9903 30.0202 30.4891C31.5212 30.0108 32.9022 29.4256 34.1302 28.7503C35.6502 27.9143 36.9632 26.9221 37.9712 25.8042C36.2052 31.8831 31.4142 36.6747 25.3352 38.4401ZM28.3302 30.9695C27.9452 32.0304 27.5032 33.0131 27.0142 33.9025C25.328 36.9688 23.1554 38.8022 20.8737 39.1233V31.938C23.5174 31.8855 26.0365 31.5457 28.3302 30.9695ZM30.5002 28.7988C31.5612 28.4141 32.5442 27.9727 33.4332 27.4835C36.5002 25.7971 38.3332 23.6245 38.6542 21.3428H31.4692C31.4162 23.9865 31.0762 26.5056 30.5002 28.7988ZM30.0232 21.3428C29.9632 24.2279 29.5482 26.9365 28.8602 29.3297C26.4674 30.0169 23.7588 30.4323 20.8737 30.492V27.3714C21.9497 24.615 24.1454 22.419 26.9016 21.3428H30.0232ZM31.4692 19.897H38.6542C38.3332 17.6153 36.5002 15.4427 33.4332 13.7563C32.5442 13.2671 31.5612 12.8257 30.5002 12.441C31.0762 14.7342 31.4162 17.2533 31.4692 19.897ZM28.8602 11.9101C29.5482 14.3033 29.9632 17.0119 30.0232 19.897H26.9017C24.1454 18.8208 21.9497 16.6248 20.8737 13.8684V10.7478C23.7588 10.8075 26.4674 11.2229 28.8602 11.9101ZM30.0202 10.7507C31.5212 11.229 32.9022 11.8142 34.1302 12.4895C35.6502 13.3255 36.9632 14.3177 37.9712 15.4356C36.2052 9.35672 31.4142 4.56516 25.3352 2.7997C26.4531 3.80788 27.4452 5.12052 28.2812 6.64058C28.9562 7.86833 29.5422 9.24951 30.0202 10.7507ZM20.8737 2.11652C23.1554 2.43762 25.328 4.27101 27.0142 7.33733C27.5032 8.22677 27.9452 9.20939 28.3302 10.2704C26.0365 9.6941 23.5174 9.35435 20.8737 9.3018V2.11652Z" fill="black"></path></g>
        <g style="opacity: 1;" id="logotype" transform="translate(47, 1.5)"><path fill="#000000" d="M16.29 33.28L16.29 33.28Q13.77 33.28 11.67 32.04Q9.57 30.80 8.36 28.70Q7.16 26.59 7.16 23.97L7.16 23.97Q7.16 21.38 8.38 19.28Q9.61 17.18 11.71 15.95Q13.80 14.73 16.40 14.73L16.40 14.73Q17.80 14.73 19.13 15.13Q20.46 15.53 21.58 16.34L21.58 16.34L21.58 8.50L25.67 7.76L25.67 33L21.61 33L21.61 31.39Q19.37 33.28 16.29 33.28ZM16.89 29.75L16.89 29.75Q18.32 29.75 19.53 29.24Q20.73 28.73 21.58 27.75L21.58 27.75L21.58 20.16Q20.73 19.24 19.53 18.74Q18.32 18.23 16.89 18.23L16.89 18.23Q15.31 18.23 14.00 18.98Q12.69 19.73 11.93 21.03Q11.18 22.32 11.18 23.97L11.18 23.97Q11.18 25.58 11.93 26.89Q12.69 28.20 14.00 28.98Q15.31 29.75 16.89 29.75ZM32.85 33L28.75 33L28.75 14.97L32.85 14.97L32.85 33ZM30.78 12.42L30.78 12.42Q29.80 12.42 29.08 11.72Q28.37 11.02 28.37 10.00L28.37 10.00Q28.37 8.99 29.08 8.29Q29.80 7.59 30.78 7.59L30.78 7.59Q31.80 7.59 32.50 8.29Q33.20 8.99 33.20 10.00L33.20 10.00Q33.20 11.02 32.50 11.72Q31.80 12.42 30.78 12.42ZM44.89 40.49L44.89 40.49Q42.86 40.49 40.97 40.05Q39.08 39.62 37.54 38.77L37.54 38.77L39.01 35.59Q40.55 36.36 41.96 36.73Q43.38 37.09 44.78 37.09L44.78 37.09Q47.06 37.09 48.21 36.08Q49.37 35.06 49.37 33.10L49.37 33.10L49.37 31.36Q47.06 33.10 44.15 33.10L44.15 33.10Q41.67 33.10 39.58 31.88Q37.50 30.66 36.29 28.55Q35.09 26.45 35.09 23.90L35.09 23.90Q35.09 21.31 36.31 19.23Q37.54 17.14 39.62 15.92Q41.70 14.69 44.29 14.69L44.29 14.69Q45.69 14.69 47.00 15.11Q48.32 15.53 49.40 16.34L49.40 16.34L49.40 14.97L53.46 14.97L53.46 33.14Q53.46 36.67 51.26 38.58Q49.05 40.49 44.89 40.49ZM44.75 29.61L44.75 29.61Q46.18 29.61 47.37 29.11Q48.56 28.63 49.37 27.71L49.37 27.71L49.37 20.12Q48.56 19.24 47.35 18.74Q46.15 18.23 44.78 18.23L44.78 18.23Q43.17 18.23 41.89 18.98Q40.62 19.73 39.86 21.01Q39.11 22.29 39.11 23.90L39.11 23.90Q39.11 25.51 39.86 26.80Q40.62 28.10 41.89 28.85Q43.17 29.61 44.75 29.61ZM72.08 38.70L54.86 38.70L54.86 35.80L72.08 35.80L72.08 38.70ZM78.87 33.31L78.87 33.31Q76.95 33.31 75.46 32.62Q73.97 31.91 73.13 30.67Q72.29 29.43 72.29 27.82L72.29 27.82Q72.29 25.23 74.23 23.80Q76.18 22.36 79.57 22.36L79.57 22.36Q82.09 22.36 84.26 23.20L84.26 23.20L84.26 21.59Q84.26 19.84 83.23 18.96Q82.20 18.09 80.17 18.09L80.17 18.09Q78.98 18.09 77.65 18.44Q76.32 18.79 74.60 19.59L74.60 19.59L73.13 16.51Q75.20 15.57 77.05 15.10Q78.91 14.63 80.80 14.63L80.80 14.63Q84.37 14.63 86.33 16.34Q88.29 18.05 88.29 21.17L88.29 21.17L88.29 33L84.26 33L84.26 31.57Q83.11 32.48 81.78 32.90Q80.45 33.31 78.87 33.31ZM76.18 27.71L76.18 27.71Q76.18 28.91 77.19 29.62Q78.21 30.34 79.89 30.34L79.89 30.34Q81.18 30.34 82.28 29.97Q83.39 29.61 84.26 28.87L84.26 28.87L84.26 26Q83.32 25.54 82.28 25.32Q81.25 25.09 80.03 25.09L80.03 25.09Q78.24 25.09 77.21 25.79Q76.18 26.49 76.18 27.71ZM98.86 33.31L98.86 33.31Q96.06 33.31 94.60 32.02Q93.15 30.73 93.15 28.24L93.15 28.24L93.15 18.44L89.37 18.44L89.37 14.97L93.15 14.97L93.15 10.39L97.25 9.44L97.25 14.97L102.46 14.97L102.46 18.44L97.25 18.44L97.25 27.36Q97.25 28.70 97.82 29.25Q98.40 29.81 99.80 29.81L99.80 29.81Q100.54 29.81 101.11 29.71Q101.69 29.61 102.36 29.39L102.36 29.39L102.36 32.79Q101.66 33.03 100.64 33.17Q99.63 33.31 98.86 33.31ZM108.55 33L104.46 33L104.46 8.50L108.55 7.76L108.55 33ZM117.34 33.31L117.34 33.31Q115.41 33.31 113.92 32.62Q112.44 31.91 111.59 30.67Q110.76 29.43 110.76 27.82L110.76 27.82Q110.76 25.23 112.70 23.80Q114.64 22.36 118.04 22.36L118.04 22.36Q120.56 22.36 122.73 23.20L122.73 23.20L122.73 21.59Q122.73 19.84 121.69 18.96Q120.66 18.09 118.63 18.09L118.63 18.09Q117.44 18.09 116.11 18.44Q114.78 18.79 113.07 19.59L113.07 19.59L111.59 16.51Q113.66 15.57 115.52 15.10Q117.37 14.63 119.26 14.63L119.26 14.63Q122.83 14.63 124.79 16.34Q126.75 18.05 126.75 21.17L126.75 21.17L126.75 33L122.73 33L122.73 31.57Q121.57 32.48 120.24 32.90Q118.91 33.31 117.34 33.31ZM114.64 27.71L114.64 27.71Q114.64 28.91 115.66 29.62Q116.67 30.34 118.35 30.34L118.35 30.34Q119.65 30.34 120.75 29.97Q121.85 29.61 122.73 28.87L122.73 28.87L122.73 26Q121.78 25.54 120.75 25.32Q119.72 25.09 118.49 25.09L118.49 25.09Q116.71 25.09 115.67 25.79Q114.64 26.49 114.64 27.71ZM136.20 33.35L136.20 33.35Q133.79 33.35 131.72 32.69Q129.66 32.02 128.15 30.76L128.15 30.76L130.25 28.03Q131.76 29.15 133.21 29.69Q134.66 30.23 136.13 30.23L136.13 30.23Q137.88 30.23 138.97 29.59Q140.05 28.94 140.05 27.89L140.05 27.89Q140.05 27.05 139.42 26.56Q138.79 26.07 137.46 25.86L137.46 25.86L134.10 25.37Q131.41 24.98 130.04 23.67Q128.68 22.36 128.68 20.23L128.68 20.23Q128.68 18.54 129.57 17.30Q130.46 16.06 132.11 15.36Q133.75 14.66 135.96 14.66L135.96 14.66Q137.92 14.66 139.75 15.22Q141.59 15.78 143.24 16.93L143.24 16.93L141.24 19.63Q139.74 18.68 138.37 18.25Q137.01 17.81 135.61 17.81L135.61 17.81Q134.14 17.81 133.24 18.39Q132.35 18.96 132.35 19.95L132.35 19.95Q132.35 20.82 132.98 21.29Q133.61 21.77 135.08 21.98L135.08 21.98L138.41 22.46Q141.10 22.81 142.50 24.13Q143.90 25.44 143.90 27.54L143.90 27.54Q143.90 29.22 142.89 30.53Q141.87 31.84 140.14 32.60Q138.41 33.35 136.20 33.35Z"></path></g>
        
      </svg>