
      <svg data-logo="logo" xmlns="http://www.w3.org/2000/svg" viewBox="0 0 192 43">
        <g id="logogram" transform="translate(0, 1) rotate(0) "><path fill-rule="evenodd" clip-rule="evenodd" d="M20.7636 0.799957C31.8089 0.799957 40.7639 9.75427 40.7639 20.8C40.7639 31.8457 31.8089 40.8 20.7636 40.8C9.71791 40.8 0.763611 31.8457 0.763611 20.8C0.763611 9.75427 9.71791 0.799957 20.7636 0.799957ZM20.0407 2.29655C17.759 2.61765 15.5864 4.45104 13.8999 7.51736C13.4107 8.40679 12.9693 9.38942 12.5847 10.4504C14.8779 9.87413 17.397 9.53438 20.0407 9.48183V2.29655ZM10.8943 10.9308C11.3727 9.42954 11.9578 8.04836 12.6331 6.82061C13.4691 5.30055 14.4613 3.98791 15.5792 2.97973C9.50031 4.74519 4.70881 9.53675 2.94331 15.6157C3.95151 14.4978 5.26411 13.5056 6.78421 12.6696C8.01201 11.9943 9.39311 11.4091 10.8943 10.9308ZM10.414 12.6211C9.83771 14.9143 9.49801 17.4334 9.44541 20.0771H2.26011C2.58121 17.7954 4.41461 15.6228 7.48101 13.9364C8.37041 13.4472 9.35301 13.0058 10.414 12.6211ZM10.8915 20.0771C10.9512 17.192 11.3666 14.4834 12.0538 12.0902C14.447 11.403 17.1556 10.9876 20.0407 10.9279V14.0508C18.9644 16.8062 16.7692 19.0012 14.0137 20.0771H10.8915ZM9.44541 21.5229H2.26011C2.58121 23.8046 4.41461 25.9771 7.48101 27.6636C8.37041 28.1528 9.35301 28.5942 10.414 28.9789C9.83771 26.6857 9.49801 24.1666 9.44541 21.5229ZM12.0538 29.5098C11.3666 27.1166 10.9512 24.408 10.8915 21.5229H14.0137C16.7692 22.5988 18.9644 24.7938 20.0407 27.5492V30.6721C17.1556 30.6124 14.447 30.197 12.0538 29.5098ZM10.8943 30.6692C9.39311 30.1909 8.01201 29.6057 6.78421 28.9304C5.26411 28.0944 3.95151 27.1022 2.94331 25.9843C4.70881 32.0632 9.50031 36.8548 15.5792 38.6202C14.4613 37.612 13.4691 36.2994 12.6331 34.7793C11.9578 33.5516 11.3727 32.1704 10.8943 30.6692ZM20.0407 39.3034C17.759 38.9823 15.5864 37.1489 13.8999 34.0826C13.4107 33.1932 12.9693 32.2105 12.5847 31.1496C14.8779 31.7258 17.397 32.0656 20.0407 32.1181V39.3034ZM25.9479 38.6202C27.0658 37.612 28.0579 36.2994 28.8939 34.7793C29.5689 33.5516 30.1549 32.1704 30.6329 30.6692C32.1339 30.1909 33.5149 29.6057 34.7429 28.9304C36.2629 28.0944 37.5759 27.1022 38.5839 25.9843C36.8179 32.0632 32.0269 36.8548 25.9479 38.6202ZM28.9429 31.1496C28.5579 32.2105 28.1159 33.1932 27.6269 34.0826C25.9407 37.1489 23.7681 38.9823 21.4864 39.3034V32.1181C24.1301 32.0656 26.6492 31.7258 28.9429 31.1496ZM31.1129 28.9789C32.1739 28.5942 33.1569 28.1528 34.0459 27.6636C37.1129 25.9772 38.9459 23.8046 39.2669 21.5229H32.0819C32.0289 24.1666 31.6889 26.6857 31.1129 28.9789ZM30.6359 21.5229C30.5759 24.408 30.1609 27.1166 29.4729 29.5098C27.0801 30.197 24.3715 30.6124 21.4864 30.6721V27.5515C22.5624 24.7951 24.7581 22.5991 27.5143 21.5229H30.6359ZM32.0819 20.0771H39.2669C38.9459 17.7954 37.1129 15.6228 34.0459 13.9364C33.1569 13.4472 32.1739 13.0058 31.1129 12.6211C31.6889 14.9143 32.0289 17.4334 32.0819 20.0771ZM29.4729 12.0902C30.1609 14.4834 30.5759 17.192 30.6359 20.0771H27.5144C24.7581 19.0009 22.5624 16.8049 21.4864 14.0485V10.9279C24.3715 10.9876 27.0801 11.403 29.4729 12.0902ZM30.6329 10.9308C32.1339 11.4091 33.5149 11.9943 34.7429 12.6696C36.2629 13.5056 37.5759 14.4978 38.5839 15.6157C36.8179 9.53675 32.0269 4.74519 25.9479 2.97973C27.0658 3.98791 28.0579 5.30055 28.8939 6.82061C29.5689 8.04836 30.1549 9.42954 30.6329 10.9308ZM21.4864 2.29655C23.7681 2.61765 25.9407 4.45104 27.6269 7.51736C28.1159 8.4068 28.5579 9.38942 28.9429 10.4504C26.6492 9.87413 24.1301 9.53438 21.4864 9.48183V2.29655Z" fill="white"/></g>
        <g id="logotype" transform="translate(47, 1.5)"><path fill="#ffffff" d="M16.29 33.28L16.29 33.28Q13.77 33.28 11.67 32.04Q9.57 30.80 8.36 28.70Q7.16 26.59 7.16 23.97L7.16 23.97Q7.16 21.38 8.38 19.28Q9.61 17.18 11.71 15.95Q13.80 14.73 16.40 14.73L16.40 14.73Q17.80 14.73 19.13 15.13Q20.46 15.53 21.58 16.34L21.58 16.34L21.58 8.50L25.67 7.76L25.67 33L21.61 33L21.61 31.39Q19.37 33.28 16.29 33.28ZM16.89 29.75L16.89 29.75Q18.32 29.75 19.53 29.24Q20.73 28.73 21.58 27.75L21.58 27.75L21.58 20.16Q20.73 19.24 19.53 18.74Q18.32 18.23 16.89 18.23L16.89 18.23Q15.31 18.23 14.00 18.98Q12.69 19.73 11.93 21.03Q11.18 22.32 11.18 23.97L11.18 23.97Q11.18 25.58 11.93 26.89Q12.69 28.20 14.00 28.98Q15.31 29.75 16.89 29.75ZM32.85 33L28.75 33L28.75 14.97L32.85 14.97L32.85 33ZM30.78 12.42L30.78 12.42Q29.80 12.42 29.08 11.72Q28.37 11.02 28.37 10.00L28.37 10.00Q28.37 8.99 29.08 8.29Q29.80 7.59 30.78 7.59L30.78 7.59Q31.80 7.59 32.50 8.29Q33.20 8.99 33.20 10.00L33.20 10.00Q33.20 11.02 32.50 11.72Q31.80 12.42 30.78 12.42ZM44.89 40.49L44.89 40.49Q42.86 40.49 40.97 40.05Q39.08 39.62 37.54 38.77L37.54 38.77L39.01 35.59Q40.55 36.36 41.96 36.73Q43.38 37.09 44.78 37.09L44.78 37.09Q47.06 37.09 48.21 36.08Q49.37 35.06 49.37 33.10L49.37 33.10L49.37 31.36Q47.06 33.10 44.15 33.10L44.15 33.10Q41.67 33.10 39.58 31.88Q37.50 30.66 36.29 28.55Q35.09 26.45 35.09 23.90L35.09 23.90Q35.09 21.31 36.31 19.23Q37.54 17.14 39.62 15.92Q41.70 14.69 44.29 14.69L44.29 14.69Q45.69 14.69 47.00 15.11Q48.32 15.53 49.40 16.34L49.40 16.34L49.40 14.97L53.46 14.97L53.46 33.14Q53.46 36.67 51.26 38.58Q49.05 40.49 44.89 40.49ZM44.75 29.61L44.75 29.61Q46.18 29.61 47.37 29.11Q48.56 28.63 49.37 27.71L49.37 27.71L49.37 20.12Q48.56 19.24 47.35 18.74Q46.15 18.23 44.78 18.23L44.78 18.23Q43.17 18.23 41.89 18.98Q40.62 19.73 39.86 21.01Q39.11 22.29 39.11 23.90L39.11 23.90Q39.11 25.51 39.86 26.80Q40.62 28.10 41.89 28.85Q43.17 29.61 44.75 29.61ZM72.08 38.70L54.86 38.70L54.86 35.80L72.08 35.80L72.08 38.70ZM78.87 33.31L78.87 33.31Q76.95 33.31 75.46 32.62Q73.97 31.91 73.13 30.67Q72.29 29.43 72.29 27.82L72.29 27.82Q72.29 25.23 74.23 23.80Q76.18 22.36 79.57 22.36L79.57 22.36Q82.09 22.36 84.26 23.20L84.26 23.20L84.26 21.59Q84.26 19.84 83.23 18.96Q82.20 18.09 80.17 18.09L80.17 18.09Q78.98 18.09 77.65 18.44Q76.32 18.79 74.60 19.59L74.60 19.59L73.13 16.51Q75.20 15.57 77.05 15.10Q78.91 14.63 80.80 14.63L80.80 14.63Q84.37 14.63 86.33 16.34Q88.29 18.05 88.29 21.17L88.29 21.17L88.29 33L84.26 33L84.26 31.57Q83.11 32.48 81.78 32.90Q80.45 33.31 78.87 33.31ZM76.18 27.71L76.18 27.71Q76.18 28.91 77.19 29.62Q78.21 30.34 79.89 30.34L79.89 30.34Q81.18 30.34 82.28 29.97Q83.39 29.61 84.26 28.87L84.26 28.87L84.26 26Q83.32 25.54 82.28 25.32Q81.25 25.09 80.03 25.09L80.03 25.09Q78.24 25.09 77.21 25.79Q76.18 26.49 76.18 27.71ZM98.86 33.31L98.86 33.31Q96.06 33.31 94.60 32.02Q93.15 30.73 93.15 28.24L93.15 28.24L93.15 18.44L89.37 18.44L89.37 14.97L93.15 14.97L93.15 10.39L97.25 9.44L97.25 14.97L102.46 14.97L102.46 18.44L97.25 18.44L97.25 27.36Q97.25 28.70 97.82 29.25Q98.40 29.81 99.80 29.81L99.80 29.81Q100.54 29.81 101.11 29.71Q101.69 29.61 102.36 29.39L102.36 29.39L102.36 32.79Q101.66 33.03 100.64 33.17Q99.63 33.31 98.86 33.31ZM108.55 33L104.46 33L104.46 8.50L108.55 7.76L108.55 33ZM117.34 33.31L117.34 33.31Q115.41 33.31 113.92 32.62Q112.44 31.91 111.59 30.67Q110.76 29.43 110.76 27.82L110.76 27.82Q110.76 25.23 112.70 23.80Q114.64 22.36 118.04 22.36L118.04 22.36Q120.56 22.36 122.73 23.20L122.73 23.20L122.73 21.59Q122.73 19.84 121.69 18.96Q120.66 18.09 118.63 18.09L118.63 18.09Q117.44 18.09 116.11 18.44Q114.78 18.79 113.07 19.59L113.07 19.59L111.59 16.51Q113.66 15.57 115.52 15.10Q117.37 14.63 119.26 14.63L119.26 14.63Q122.83 14.63 124.79 16.34Q126.75 18.05 126.75 21.17L126.75 21.17L126.75 33L122.73 33L122.73 31.57Q121.57 32.48 120.24 32.90Q118.91 33.31 117.34 33.31ZM114.64 27.71L114.64 27.71Q114.64 28.91 115.66 29.62Q116.67 30.34 118.35 30.34L118.35 30.34Q119.65 30.34 120.75 29.97Q121.85 29.61 122.73 28.87L122.73 28.87L122.73 26Q121.78 25.54 120.75 25.32Q119.72 25.09 118.49 25.09L118.49 25.09Q116.71 25.09 115.67 25.79Q114.64 26.49 114.64 27.71ZM136.20 33.35L136.20 33.35Q133.79 33.35 131.72 32.69Q129.66 32.02 128.15 30.76L128.15 30.76L130.25 28.03Q131.76 29.15 133.21 29.69Q134.66 30.23 136.13 30.23L136.13 30.23Q137.88 30.23 138.97 29.59Q140.05 28.94 140.05 27.89L140.05 27.89Q140.05 27.05 139.42 26.56Q138.79 26.07 137.46 25.86L137.46 25.86L134.10 25.37Q131.41 24.98 130.04 23.67Q128.68 22.36 128.68 20.23L128.68 20.23Q128.68 18.54 129.57 17.30Q130.46 16.06 132.11 15.36Q133.75 14.66 135.96 14.66L135.96 14.66Q137.92 14.66 139.75 15.22Q141.59 15.78 143.24 16.93L143.24 16.93L141.24 19.63Q139.74 18.68 138.37 18.25Q137.01 17.81 135.61 17.81L135.61 17.81Q134.14 17.81 133.24 18.39Q132.35 18.96 132.35 19.95L132.35 19.95Q132.35 20.82 132.98 21.29Q133.61 21.77 135.08 21.98L135.08 21.98L138.41 22.46Q141.10 22.81 142.50 24.13Q143.90 25.44 143.90 27.54L143.90 27.54Q143.90 29.22 142.89 30.53Q141.87 31.84 140.14 32.60Q138.41 33.35 136.20 33.35Z"/></g>
        
      </svg>
    